PathFileType	4	(X/Y/Z)	C:\Users\°ÂÌØÂü\Desktop\20210112\bx_y_0_501-Unnamed.trc
DataRate	CameraRate	NumFrames	NumMarkers	Units	OrigDataRate	OrigDataStartFrame	OrigNumFrames
50.00	50.00	       4	0	mm	50.00	302	       603
Frame#	Time	
		

302	6.020	-405.30341	-87.48949	1217.67041	-820.64038	276.14709	869.21716	-751.16431	210.87895	805.55286	-833.37286	277.10294	699.11066	-746.43530	-16.92073	800.68909	-833.20856	-69.81112	719.63245	-842.67175	247.20099	622.16852	-785.23303	142.88525	566.04456	-828.53094	243.66159	564.22253	-751.82935	10.72099	524.21344	-849.90717	255.57982	485.48428	-762.77637	205.88608	534.37286	-831.52051	-80.89105	855.76776	-664.06506	-69.05634	160.30881	-720.51373	157.25400	220.83554	-777.57574	225.89471	200.67316	-622.05756	-78.93458	157.24637	-882.42096	296.01993	144.71021	-677.84900	53.26180	162.81728	-605.60272	20.42270	167.70067	-677.92767	176.29741	162.00233	-597.26306	222.67577	174.00775	-667.63251	300.65466	158.46295	-629.76959	306.72217	161.59654	-562.07501	257.28766	166.19215	-528.03528	304.19919	146.41411	-158.91568	81.98217	1391.08875	-410.16187	264.54504	1250.97498	-518.05432	-72.02274	142.84550	-800.14270	175.38034	181.38289	-773.50702	-10.33296	202.26292	-798.21545	50.56872	172.93297	-937.94818	83.27602	1093.06958	-837.60907	-45.69976	472.10797	-561.01489	-35.14087	163.41093	-876.05621	-78.49118	141.57738				-815.63300	-38.35632	604.18201	-812.57275	-34.16942	558.29010	-727.95117	71.41613	220.82494							-786.41705	70.12259	564.79651	
303	6.040	-407.32190	-87.78036	1225.56384	-818.88763	275.52740	869.29083	-749.70264	210.65778	805.66150	-832.07776	277.19339	699.80328	-745.07819	-16.92394	800.74670	-831.97339	-70.15195	720.46057	-841.46552	247.02982	622.75177	-785.02740	142.79849	565.94629	-827.14508	244.07710	564.69135	-751.72748	10.61902	523.94043	-849.29517	255.06474	485.49243	-762.35394	205.71298	534.46460	-829.78650	-80.37738	856.14081	-664.24188	-68.97943	160.68883	-720.40070	157.18355	220.86827	-777.48230	225.79063	200.77524	-622.05817	-78.92960	157.28459	-882.80634	295.69119	144.39279	-677.85059	53.33829	162.55032	-605.63428	20.30514	167.79047	-677.82220	176.05565	161.92252	-597.37250	222.59930	174.33951	-667.65765	300.34955	158.74277	-629.83899	306.85934	161.78679	-562.01556	257.44543	166.26933	-527.96698	304.29382	146.48035	-163.26381	81.17574	1403.47119	-412.10742	263.88593	1257.98669	-517.97559	-72.40934	142.86752	-800.13690	175.47255	181.50513	-773.60748	-10.25055	202.52879	-798.33783	50.54817	173.01723	-937.77802	83.19041	1092.48413	-836.95917	-45.98389	472.42838	-560.87451	-35.22741	163.33798	-876.03320	-78.59757	141.50241				-814.71625	-37.90316	603.89355	-811.62067	-34.32476	558.67468	-727.95117	71.41613	220.82494							-785.68457	70.46426	564.74780	
304	6.060	-409.01779	-88.26855	1233.02112	-817.86322	274.86182	869.59222	-748.41144	210.31578	806.06982	-830.64642	276.36356	699.67291	-743.27264	-16.81243	801.37439	-830.02393	-70.15239	721.15802	-840.51172	246.39171	622.50104	-783.92731	142.68669	566.45746	-826.61047	243.57359	564.57428	-750.63660	10.62382	524.43164	-848.86511	254.81009	485.94830	-761.17883	205.73323	534.38171	-828.01056	-80.34569	856.51819	-664.24457	-69.22153	160.53441	-720.30188	157.04567	220.92207	-777.78198	225.59959	200.73538	-622.07336	-79.04222	157.38947	-882.82654	295.79077	144.45630	-677.71344	53.42604	162.68976	-605.50873	20.28176	167.86087	-677.88898	176.06886	162.08618	-597.48724	222.62546	173.87917	-667.57532	300.39508	158.46159	-629.76959	306.72217	161.59654	-562.21472	257.61996	166.31291	-527.91321	304.16162	146.54044	-168.03522	80.75838	1415.61658	-414.40094	263.77628	1265.97009	-518.02197	-72.25551	142.85814	-800.02271	175.24205	181.38130	-773.59045	-10.25929	202.50992	-798.31134	50.44202	172.99657	-937.54059	83.11359	1091.93457	-836.00372	-45.93967	472.51855	-561.06964	-35.33092	163.37814	-876.05139	-78.44123	141.62697				-813.64551	-38.24250	604.53754	-810.93927	-34.45934	558.93512	-727.80865	71.48825	220.97479							-784.57281	70.35419	565.03748	
305	6.080	-410.55341	-88.48991	1241.13464	-816.10315	274.51868	870.11871	-746.74237	209.94968	806.26019	-828.80347	275.91840	699.88940	-741.62787	-16.71564	801.40857	-827.44592	-70.30518	722.04584	-839.57050	246.39484	622.89917	-782.43103	142.34038	566.34674	-825.84808	243.41451	565.00641	-749.60516	10.59255	524.40820	-847.94574	254.52347	486.03165	-760.19061	205.53563	534.54730	-825.90222	-80.33123	857.11414	-664.21606	-69.10549	160.44019	-720.21246	157.00529	221.00597	-777.68311	225.67030	200.73648	-622.11713	-79.06081	157.31891	-882.74054	295.70990	144.41881	-677.76434	53.38472	162.86659	-605.57318	20.37184	167.65323	-677.82104	175.87216	161.93796	-597.20874	222.69987	174.07516	-667.46320	300.32870	158.69075	-629.81415	306.73001	161.67641	-562.15051	257.81750	166.23427	-528.02179	304.13281	146.54268	-172.93053	80.07726	1428.07275	-416.76505	263.18112	1273.65149	-517.92053	-72.50212	143.04094	-800.04443	175.21399	181.51605	-773.58710	-10.16987	202.58543	-798.29077	50.61559	173.03239	-936.74725	83.07693	1091.47681	-835.20416	-45.58479	472.66849	-561.07233	-35.39170	163.54463	-876.03320	-78.59757	141.50241	-759.40918	-15.69694	1003.99432	-812.33362	-38.01379	604.46033	-809.54462	-34.05274	559.00928	-727.95117	71.41613	220.82494							-783.68353	70.28391	565.30438	
